PathFileType	4	(X/Y/Z)	/Users/itak/Documents/Research/Walk-IL/dataset/trc/00519_00183.trc
DataRate	CameraRate	NumFrames	NumMarkers	Units	OrigDataRate	OrigDataStartFrame	OrigNumFrames
100.000000	100.000000	4	53	mm	100.000000	209	559
Frame#	Time	RPSI			LPSI			L3			STRN			T10			C7			CLAV			RBAK			LBAK			LSHO			LUPA			LAEL			LAOL			LWTS			LWPS			LFRA			LIFD			LHPS			LHTS			RSHO			RUPA			RAEL			RAOL			RWTS			RWPS			RFRA			RIFD			RHTS			RHPS			RBHD			LFHD			RFHD			LBHD			LHIP			RHIP			RASI			LASI			LKNE			LTHI			LANK			LTIP			LTOE			LMT1			LMT5			LHEE			RKNE			RTHI			RANK			RTIP			RTOE			RMT1			RMT5			RHEE			
		X1	Y1	Z1	X2	Y2	Z2	X3	Y3	Z3	X4	Y4	Z4	X5	Y5	Z5	X6	Y6	Z6	X7	Y7	Z7	X8	Y8	Z8	X9	Y9	Z9	X10	Y10	Z10	X11	Y11	Z11	X12	Y12	Z12	X13	Y13	Z13	X14	Y14	Z14	X15	Y15	Z15	X16	Y16	Z16	X17	Y17	Z17	X18	Y18	Z18	X19	Y19	Z19	X20	Y20	Z20	X21	Y21	Z21	X22	Y22	Z22	X23	Y23	Z23	X24	Y24	Z24	X25	Y25	Z25	X26	Y26	Z26	X27	Y27	Z27	X28	Y28	Z28	X29	Y29	Z29	X30	Y30	Z30	X31	Y31	Z31	X32	Y32	Z32	X33	Y33	Z33	X34	Y34	Z34	X35	Y35	Z35	X36	Y36	Z36	X37	Y37	Z37	X38	Y38	Z38	X39	Y39	Z39	X40	Y40	Z40	X41	Y41	Z41	X42	Y42	Z42	X43	Y43	Z43	X44	Y44	Z44	X45	Y45	Z45	X46	Y46	Z46	X47	Y47	Z47	X48	Y48	Z48	X49	Y49	Z49	X50	Y50	Z50	X51	Y51	Z51	X52	Y52	Z52	X53	Y53	Z53	

210	2.09	-755.3688354492188	950.943359375	-396.1309814453125	-738.2823486328125	944.5782470703125	-518.7747802734375	-743.5042724609375	1026.535522460938	-460.5784301757812	-515.406005859375	1178.840698242188	-426.6028137207031	-748.9063110351562	1132.10791015625	-452.460693359375	-691.0491943359375	1358.849731445312	-438.259521484375	-544.6341552734375	1276.031494140625	-425.3921508789062	-756.8134765625	1238.015991210938	-362.2192993164062	-710.3902587890625	1308.907348632812	-529.9200439453125	-606.3419799804688	1354.714233398438	-589.8711547851562	-617.2988891601562	1232.51171875	-656.6924438476562	-610.3646240234375	1024.615600585938	-695.256103515625	-686.8076782226562	1013.411987304688	-631.50244140625	-517.8644409179688	839.6111450195312	-658.8042602539062	-592.1957397460938	802.218017578125	-704.0909423828125	-590.6563720703125	940.9794921875	-699.6137084960938	-508.4440612792969	681.7197265625	-660.9739990234375	-565.0420532226562	750.477783203125	-702.2145385742188	-504.2661743164062	763.9392700195312	-681.5660400390625	-656.0822143554688	1346.479125976562	-285.5345458984375	-687.5841064453125	1280.834716796875	-235.4453582763672	-732.7235717773438	1019.03271484375	-196.8334197998047	-769.85400390625	1005.437194824219	-250.2486877441406	-650.7442626953125	808.7371826171875	-183.4972229003906	-740.9918823242188	792.924560546875	-174.4554290771484	-738.7697143554688	964.8424682617188	-189.4566650390625	-672.1240844726562	649.3602294921875	-172.5645446777344	-659.8540649414062	717.3275146484375	-153.8567504882812	-729.05615234375	722.2130737304688	-163.7261505126953	-669.1268920898438	1499.48291015625	-349.0830688476562	-487.3843383789062	1563.142456054688	-406.7234191894531	-548.7297973632812	1541.281494140625	-296.9769592285156	-604.585205078125	1525.199462890625	-494.804931640625	-608.34423828125	871.640380859375	-629.52001953125	-665.7412109375	851.9097290039062	-256.9567565917969	-559.7803955078125	902.7262573242188	-306.8347473144531	-531.5712280273438	912.746826171875	-546.2207641601562	-476.5607299804688	466.7206115722656	-587.4681396484375	-517.352783203125	621.445556640625	-606.9442138671875	-824.9365234375	216.3831939697266	-662.405517578125	-571.6550903320312	364.8190002441406	-614.5736694335938	-728.3706665039062	58.05373001098633	-587.345703125	-773.81396484375	117.4996566772461	-559.7257080078125	-770.8624267578125	122.9578704833984	-664.3018188476562	-861.4239501953125	251.4766387939453	-605.391845703125	-603.9382934570312	468.8605041503906	-344.2028198242188	-624.7898559570312	721.7078247070312	-266.2628784179688	-679.6466064453125	48.78534317016602	-427.5105590820312	-594.1159057617188	324.5137023925781	-378.7659912109375	-474.1378784179688	41.32418823242188	-427.601318359375	-529.5575561523438	45.03293991088867	-478.9710083007812	-572.5023803710938	44.94601440429688	-390.56640625	-721.4400024414062	38.6734619140625	-483.7763977050781	
211	2.1	-748.05859375	951.2079467773438	-395.3763732910156	-729.656494140625	944.9992065429688	-517.91552734375	-735.5919189453125	1026.7109375	-459.0458374023438	-508.1576538085938	1179.832641601562	-423.4128112792969	-741.4732666015625	1132.294189453125	-450.9619445800781	-684.2214965820312	1359.143432617188	-436.3324584960938	-537.6472778320312	1276.939453125	-422.4978942871094	-749.9841918945312	1238.122680664062	-360.4725646972656	-702.8972778320312	1309.12060546875	-528.019775390625	-598.65625	1355.130981445312	-587.4204711914062	-609.1248779296875	1232.933715820312	-654.30078125	-601.1591796875	1025.102905273438	-692.7941284179688	-677.8846435546875	1013.597473144531	-629.369140625	-507.573486328125	840.8569946289062	-655.8506469726562	-581.5389404296875	802.806396484375	-701.3324584960938	-581.0194091796875	941.632568359375	-697.0087890625	-496.7808837890625	683.0819702148438	-657.8292236328125	-553.8594360351562	751.3151245117188	-699.301513671875	-493.2781372070312	765.2869873046875	-678.5031127929688	-650.1557006835938	1347.192138671875	-283.4246826171875	-681.626220703125	1281.623657226562	-233.3211975097656	-725.0889282226562	1019.634216308594	-193.5744171142578	-762.2164916992188	1005.442565917969	-246.8132476806641	-640.15966796875	810.6193237304688	-179.3315277099609	-730.1170654296875	793.6681518554688	-169.6415863037109	-730.5345458984375	965.3971557617188	-185.8589019775391	-659.32958984375	651.0562133789062	-166.9312438964844	-647.8670654296875	719.3222045898438	-148.9118041992188	-717.2154541015625	723.2233276367188	-158.3495330810547	-662.1340942382812	1500.58642578125	-346.953125	-479.7022094726562	1562.969848632812	-403.8994140625	-541.6393432617188	1541.557250976562	-294.4190368652344	-596.8585205078125	1525.80419921875	-492.4612731933594	-598.0997924804688	872.785888671875	-627.0359497070312	-660.5311889648438	851.7991333007812	-255.2666931152344	-553.63916015625	902.7805786132812	-303.3037719726562	-522.7037353515625	913.8480224609375	-542.3063354492188	-457.6473693847656	471.0318298339844	-580.107421875	-501.8448181152344	624.5563354492188	-601.7060546875	-798.4902954101562	212.8188171386719	-661.0464477539062	-549.9737548828125	367.1974487304688	-608.576171875	-695.8257446289062	58.69064331054688	-585.7808837890625	-744.8399658203125	115.1750106811523	-558.3662719726562	-739.982666015625	122.3428649902344	-662.7255249023438	-837.8179931640625	245.6614685058594	-604.4857177734375	-602.0943603515625	468.1998291015625	-342.1034240722656	-620.4863891601562	721.3780517578125	-264.40966796875	-679.6928100585938	48.69563674926758	-427.42529296875	-593.3602294921875	323.9841918945312	-377.4376525878906	-474.2151184082031	41.32777404785156	-427.388427734375	-529.573974609375	45.12930679321289	-478.7951354980469	-572.5322875976562	44.78349685668945	-390.3450622558594	-721.4150390625	38.70433044433594	-483.8169250488281	
212	2.11	-740.6803588867188	951.418701171875	-394.5849914550781	-720.9848022460938	945.309814453125	-517.0032348632812	-727.587158203125	1026.781616210938	-457.45703125	-500.8868408203125	1180.685424804688	-420.1734008789062	-733.936279296875	1132.359619140625	-449.4375	-677.354736328125	1359.319946289062	-434.3945617675781	-530.6128540039062	1277.72509765625	-419.5415649414062	-743.191650390625	1238.12158203125	-358.7802124023438	-695.3225708007812	1309.224731445312	-526.1220703125	-590.8485717773438	1355.440063476562	-584.9264526367188	-600.8572387695312	1233.254150390625	-651.8680419921875	-591.9127197265625	1025.498901367188	-690.3482666015625	-668.939208984375	1013.689514160156	-627.2658081054688	-497.3354187011719	841.9725952148438	-652.884521484375	-570.8934936523438	803.2937622070312	-698.5958862304688	-571.3683471679688	942.192138671875	-694.4282836914062	-485.2708435058594	684.3242797851562	-654.58154296875	-542.7673950195312	752.037353515625	-696.3511962890625	-482.3648681640625	766.4879760742188	-675.3806762695312	-644.2761840820312	1347.747192382812	-281.2906188964844	-675.7578735351562	1282.2392578125	-231.2077178955078	-717.5557861328125	1020.072570800781	-190.3150482177734	-754.6593627929688	1005.280639648438	-243.3408660888672	-629.5379028320312	812.4364013671875	-175.1640167236328	-719.1873779296875	794.2669677734375	-164.8385925292969	-722.3947143554688	965.7933349609375	-182.2537689208984	-646.3212280273438	652.6979370117188	-161.4019165039062	-635.7591552734375	721.2590942382812	-144.0193481445312	-705.2289428710938	724.0921630859375	-153.0594787597656	-655.1130981445312	1501.642944335938	-344.7655334472656	-472.03857421875	1562.660522460938	-401.152587890625	-534.4835205078125	1541.763427734375	-291.8873901367188	-589.2098999023438	1526.265747070312	-490.1029052734375	-587.6847534179688	873.8346557617188	-624.4642944335938	-655.2424926757812	851.639892578125	-253.6132965087891	-547.4451904296875	902.6983642578125	-299.8515930175781	-513.843505859375	914.8155517578125	-538.4517211914062	-439.3129272460938	475.3877563476562	-572.5353393554688	-486.6748657226562	627.6774291992188	-596.3268432617188	-771.4716796875	208.2534484863281	-659.1848754882812	-528.5150146484375	369.4023742675781	-602.245849609375	-662.2940063476562	58.95533752441406	-583.5707397460938	-714.9122924804688	112.1503982543945	-556.4435424804688	-708.3380126953125	121.1118698120117	-660.5498046875	-813.586181640625	238.5339965820312	-603.102294921875	-600.1491088867188	467.5188598632812	-339.9706420898438	-616.1502685546875	721.0099487304688	-262.5672912597656	-679.7335205078125	48.61098098754883	-427.3200378417969	-592.5233154296875	323.4602966308594	-376.1383666992188	-474.2895202636719	41.32629013061523	-427.1605529785156	-529.59423828125	45.21625137329102	-478.6146240234375	-572.5484008789062	44.62142181396484	-390.1336059570312	-721.3984985351562	38.75724029541016	-483.8173217773438	
213	2.12	-733.2463989257812	951.5493774414062	-393.7671203613281	-712.2681274414062	945.4871826171875	-516.0486450195312	-719.5082397460938	1026.738037109375	-455.84912109375	-493.5909423828125	1181.372192382812	-416.8763732910156	-726.2938842773438	1132.300170898438	-447.899658203125	-670.4302368164062	1359.370849609375	-432.4478759765625	-523.5277709960938	1278.36376953125	-416.5193176269531	-736.4269409179688	1238.002563476562	-357.1502380371094	-687.6430053710938	1309.215087890625	-524.235595703125	-582.89697265625	1355.630493164062	-582.3853149414062	-592.4594116210938	1233.462646484375	-649.3887939453125	-582.6205444335938	1025.785400390625	-687.9158935546875	-659.9649658203125	1013.682678222656	-625.1926879882812	-487.155517578125	842.9375	-649.8945922851562	-560.2498779296875	803.665283203125	-695.8760986328125	-561.6887817382812	942.64306640625	-691.86328125	-473.9207153320312	685.425048828125	-651.2501831054688	-531.759033203125	752.626953125	-693.374755859375	-471.523681640625	767.5309448242188	-672.19970703125	-638.4267578125	1348.120483398438	-279.1346740722656	-669.9635620117188	1282.646240234375	-229.106689453125	-710.0853271484375	1020.312194824219	-187.0457763671875	-747.1461791992188	1004.916320800781	-239.8256683349609	-618.8831787109375	814.1446533203125	-170.9958953857422	-708.208740234375	794.6974487304688	-160.0532073974609	-714.3131713867188	965.9931030273438	-178.6351013183594	-633.137451171875	654.254150390625	-155.9785919189453	-623.5601196289062	723.1014404296875	-139.1717071533203	-693.1148071289062	724.7950439453125	-147.8624877929688	-648.05859375	1502.621215820312	-342.5222778320312	-464.4002990722656	1562.219848632812	-398.4832763671875	-527.266845703125	1541.895385742188	-289.380615234375	-581.6273193359375	1526.56640625	-487.7311096191406	-576.9888305664062	874.758544921875	-621.7711181640625	-649.9057006835938	851.4252319335938	-252.0010070800781	-541.2015991210938	902.4866333007812	-296.4729614257812	-504.9824523925781	915.6351318359375	-534.6487426757812	-421.5906066894531	479.725830078125	-564.8158569335938	-471.8828125	630.754638671875	-590.8496704101562	-743.9223022460938	202.7435302734375	-656.7572021484375	-507.3466796875	371.4163513183594	-595.6546630859375	-627.9479370117188	58.90330123901367	-580.7285766601562	-684.0838623046875	108.5147857666016	-553.9287719726562	-676.0726928710938	119.3156356811523	-657.7607421875	-788.6721801757812	230.1703643798828	-601.1581420898438	-598.08154296875	466.8092651367188	-337.8375854492188	-611.7620239257812	720.5856323242188	-260.724365234375	-679.764404296875	48.53397750854492	-427.2083129882812	-591.5897827148438	322.9354248046875	-374.8817138671875	-474.3572998046875	41.31871795654297	-426.9247436523438	-529.6211547851562	45.29130554199219	-478.4305725097656	-572.5545043945312	44.46308517456055	-389.9364318847656	-721.39599609375	38.8361701965332	-483.7804260253906	
